<?xml version="1.0" standalone="no"?>
<!DOCTYPE svg PUBLIC "-//W3C//DTD SVG 20010904//EN"
 "http://www.w3.org/TR/2001/REC-SVG-20010904/DTD/svg10.dtd">
<svg version="1.0" xmlns="http://www.w3.org/2000/svg"
 width="1280.000000pt" height="1056.000000pt" viewBox="0 0 1280.000000 1056.000000"
 preserveAspectRatio="xMidYMid meet">
<metadata>
Created by potrace 1.15, written by Peter Selinger 2001-2017
</metadata>
<g transform="translate(0.000000,1056.000000) scale(0.100000,-0.100000)"
fill="#000000" stroke="none">
<path d="M8209 10547 c-181 -68 -327 -310 -455 -754 -65 -228 -172 -783 -162
-843 2 -13 40 24 135 129 652 724 921 1240 736 1412 -15 15 -43 34 -61 43 -45
23 -148 30 -193 13z"/>
<path d="M4289 9889 c-114 -27 -216 -88 -253 -152 -35 -59 -41 -111 -22 -187
44 -171 147 -320 541 -785 302 -356 433 -532 519 -700 75 -146 91 -203 91
-330 0 -100 -3 -115 -27 -166 -38 -77 -127 -162 -215 -206 -67 -33 -78 -35
-140 -31 -126 9 -246 93 -423 294 -281 320 -335 372 -445 425 -46 22 -74 29
-120 29 -141 -1 -269 -114 -250 -220 12 -66 57 -122 250 -314 213 -212 245
-257 245 -351 0 -105 -101 -208 -231 -234 -113 -23 -233 18 -507 176 -287 166
-379 196 -494 161 -80 -24 -168 -132 -168 -207 0 -49 26 -101 78 -154 60 -62
144 -119 357 -242 215 -123 300 -181 370 -249 66 -65 94 -122 95 -191 1 -177
-172 -242 -541 -204 -166 16 -422 63 -853 155 -774 165 -1063 197 -1228 135
-110 -42 -152 -134 -91 -196 105 -104 398 -155 1268 -220 187 -14 392 -30 455
-35 568 -50 851 -115 941 -217 29 -34 31 -40 26 -90 -14 -134 -110 -258 -250
-323 -244 -112 -584 -120 -1366 -31 -544 63 -780 78 -951 61 -141 -13 -217
-32 -293 -73 -101 -53 -147 -133 -147 -252 0 -155 75 -230 256 -256 174 -24
414 12 994 151 521 125 740 169 960 195 412 49 665 -27 755 -228 24 -52 29
-79 33 -169 4 -101 3 -111 -22 -162 -49 -100 -163 -183 -351 -255 -44 -16
-172 -60 -285 -97 -247 -80 -352 -127 -416 -185 -74 -69 -91 -137 -59 -230 30
-85 95 -128 166 -109 72 20 145 69 340 232 241 201 361 270 482 276 94 6 149
-23 253 -130 96 -99 133 -158 141 -227 8 -70 -15 -126 -78 -188 -85 -85 -219
-153 -554 -280 -381 -145 -505 -228 -505 -339 0 -78 96 -186 220 -247 56 -28
75 -32 141 -32 70 1 84 4 165 44 76 38 105 60 195 150 58 58 166 180 240 271
229 282 327 371 425 386 98 14 196 -63 273 -216 50 -101 65 -172 58 -280 -7
-95 -31 -174 -81 -265 -137 -245 -364 -450 -971 -880 -277 -196 -452 -332
-548 -424 -81 -78 -155 -180 -176 -240 -16 -50 -13 -120 8 -166 28 -62 126
-146 233 -198 226 -112 382 -101 528 39 126 120 213 293 389 772 135 364 183
481 260 627 78 148 140 235 231 325 204 202 446 249 755 148 256 -83 332 -161
328 -334 -2 -83 -22 -156 -103 -381 -98 -270 -114 -347 -89 -424 29 -86 111
-132 239 -133 69 -1 93 3 126 21 94 50 144 152 219 446 57 227 71 269 105 338
62 122 146 179 265 179 90 0 154 -22 203 -69 77 -75 106 -179 105 -381 0 -158
-16 -300 -69 -600 -113 -645 -124 -729 -124 -934 0 -221 32 -337 117 -418 67
-65 121 -83 248 -82 159 0 262 38 334 119 74 84 97 179 88 353 -10 187 -55
354 -237 897 -166 493 -216 723 -191 892 28 195 151 298 356 298 67 0 89 -5
136 -28 115 -56 177 -141 332 -458 150 -306 215 -373 362 -373 115 1 219 60
246 141 25 77 -14 174 -179 441 -115 186 -155 279 -156 361 0 93 41 148 154
205 94 47 147 59 239 54 104 -6 187 -46 282 -135 121 -114 195 -227 412 -623
168 -309 265 -457 360 -554 159 -161 315 -185 505 -79 127 70 192 163 178 256
-4 24 -23 72 -44 107 -75 128 -249 275 -652 550 -436 298 -592 421 -691 546
-123 155 -138 270 -48 384 76 96 177 134 339 128 233 -10 413 -117 891 -529
355 -306 516 -415 685 -465 71 -21 194 -22 248 -2 83 30 98 131 35 229 -71
111 -226 211 -710 460 -464 238 -606 325 -721 442 -68 70 -102 136 -102 202 0
67 27 119 95 185 31 30 60 66 64 80 17 58 80 163 126 208 162 162 422 161 834
-3 66 -26 273 -121 460 -212 187 -91 389 -188 450 -215 409 -183 615 -184 705
-4 36 71 38 104 8 142 -33 43 -46 52 -124 89 -128 61 -314 107 -729 180 -496
87 -601 107 -760 142 -637 141 -809 329 -544 594 78 79 169 127 304 161 80 20
114 22 300 22 148 -1 268 -7 405 -23 242 -28 494 -37 574 -22 211 39 297 174
267 414 -37 291 -112 389 -298 389 -155 0 -282 -43 -737 -244 -511 -227 -669
-275 -871 -266 -119 5 -189 32 -255 98 -49 49 -105 161 -121 240 -14 72 -1
122 46 177 74 87 160 126 519 239 341 107 442 158 486 245 54 105 -17 258
-135 295 -50 16 -60 16 -132 2 -43 -9 -158 -46 -255 -82 -250 -93 -365 -117
-472 -97 -89 16 -159 53 -226 118 -57 56 -60 61 -60 107 0 67 43 123 145 191
111 73 199 116 532 256 495 209 670 300 790 412 153 143 155 276 9 423 -91 91
-173 128 -281 129 -44 0 -102 -6 -130 -14 -78 -22 -211 -94 -310 -168 -96 -72
-358 -329 -673 -660 -207 -217 -320 -316 -418 -364 -117 -58 -185 -49 -258 32
-117 130 -63 290 230 686 239 322 304 468 256 575 -50 113 -205 161 -330 103
-106 -49 -199 -157 -412 -474 -191 -286 -276 -383 -391 -446 -47 -26 -64 -30
-134 -30 -213 0 -291 140 -229 412 8 33 41 146 75 250 94 292 114 403 88 498
-23 86 -89 137 -199 157 -131 23 -229 -45 -289 -202 -17 -43 -51 -153 -75
-243 -68 -251 -112 -346 -187 -411 -87 -74 -221 -87 -334 -31 -67 32 -102 79
-121 162 -19 81 -18 132 12 364 41 323 27 426 -68 479 -86 48 -239 32 -292
-30 -59 -71 -56 -175 11 -403 82 -277 86 -298 87 -402 1 -88 -2 -105 -22 -137
-30 -49 -92 -77 -189 -87 -385 -38 -622 182 -767 709 -18 69 -61 260 -95 425
-94 456 -121 556 -193 705 -52 108 -147 208 -222 233 -53 18 -174 21 -237 6z"/>
<path d="M10536 6915 c-194 -69 -212 -302 -31 -390 97 -48 223 -34 296 32 77
70 98 155 60 239 -48 106 -203 163 -325 119z"/>
<path d="M160 6564 c-24 -9 -60 -28 -79 -42 -40 -31 -81 -112 -81 -162 1 -76
65 -160 148 -196 96 -40 241 -8 306 68 91 106 53 255 -84 323 -49 25 -154 29
-210 9z"/>
<path d="M11570 4940 c-286 -17 -785 -69 -773 -81 12 -11 261 -102 464 -169
681 -226 1166 -307 1386 -230 78 27 139 89 148 152 25 164 -131 267 -475 313
-149 19 -541 27 -750 15z"/>
<path d="M1800 3274 c-901 -99 -1484 -245 -1679 -420 -29 -26 -58 -59 -66 -75
-32 -61 -10 -164 47 -215 47 -43 90 -58 184 -62 114 -5 212 14 377 72 120 43
155 58 308 129 186 86 516 278 797 463 157 104 186 126 165 123 -5 -1 -64 -7
-133 -15z"/>
</g>
</svg>
