<?xml version="1.0" standalone="no"?>
<!DOCTYPE svg PUBLIC "-//W3C//DTD SVG 20010904//EN"
 "http://www.w3.org/TR/2001/REC-SVG-20010904/DTD/svg10.dtd">
<svg version="1.0" xmlns="http://www.w3.org/2000/svg"
 width="892.000000pt" height="1280.000000pt" viewBox="0 0 892.000000 1280.000000"
 preserveAspectRatio="xMidYMid meet">
<metadata>
Created by potrace 1.15, written by Peter Selinger 2001-2017
</metadata>
<g transform="translate(0.000000,1280.000000) scale(0.100000,-0.100000)"
fill="#2196f3" stroke="none">
<path d="M4436 12728 c-13 -168 -19 -696 -7 -789 12 -108 27 -159 46 -159 19
0 107 100 132 151 21 42 77 178 130 319 45 118 113 366 128 471 l7 47 -49 6
c-46 6 -316 26 -359 26 -20 0 -22 -7 -28 -72z"/>
<path d="M2080 11721 c-41 -16 -115 -46 -165 -68 -49 -22 -102 -43 -117 -47
-16 -3 -28 -11 -28 -17 0 -15 92 -150 195 -284 51 -66 102 -138 113 -161 27
-53 150 -219 264 -356 119 -144 138 -145 108 -8 -10 47 -35 167 -55 268 -19
101 -49 226 -66 278 -16 52 -46 151 -65 221 -42 156 -52 181 -75 193 -24 13
-23 13 -109 -19z"/>
<path d="M7619 11013 c-30 -32 -100 -107 -155 -168 -54 -60 -231 -249 -393
-420 -324 -341 -401 -429 -401 -458 0 -15 3 -17 13 -8 8 6 73 31 145 56 78 27
221 89 351 155 253 126 671 327 751 360 78 33 81 36 66 68 -83 175 -137 272
-178 316 -27 28 -48 55 -48 61 0 16 -69 95 -84 95 -6 0 -36 -26 -67 -57z"/>
<path d="M3863 10880 c-39 -16 -59 -145 -28 -186 8 -10 15 -41 15 -67 0 -27 5
-57 10 -68 26 -47 110 -650 110 -786 0 -121 -20 -142 -175 -182 -133 -34 -189
-57 -348 -142 -292 -156 -385 -228 -647 -496 -280 -285 -388 -465 -447 -742
-13 -63 -29 -121 -36 -129 -16 -20 -23 -387 -8 -468 14 -74 65 -183 139 -294
69 -103 246 -285 362 -370 122 -90 426 -235 658 -314 103 -35 212 -74 242 -86
30 -12 158 -48 283 -81 126 -32 243 -67 261 -79 18 -11 43 -20 55 -20 27 0
100 -36 192 -96 39 -24 170 -94 292 -155 221 -110 349 -187 418 -251 55 -50
133 -150 158 -201 29 -60 25 -151 -13 -297 -35 -135 -72 -210 -111 -230 -16
-8 -63 -34 -103 -57 -40 -24 -79 -43 -86 -43 -7 0 -25 -9 -39 -20 -49 -39
-146 -54 -357 -53 -226 0 -335 15 -480 67 -401 144 -430 156 -883 382 -192 96
-356 174 -365 174 -25 0 -74 -38 -118 -94 -126 -158 -330 -499 -421 -705 -35
-80 -70 -152 -78 -161 -8 -9 -15 -30 -15 -47 0 -17 -6 -49 -14 -71 l-15 -41
112 -89 c208 -164 242 -189 339 -256 54 -36 109 -68 122 -72 13 -3 29 -17 37
-30 7 -14 24 -27 38 -30 47 -9 315 -117 413 -166 54 -26 143 -66 198 -88 54
-22 128 -53 162 -69 35 -15 106 -36 158 -45 136 -25 130 -23 130 -60 0 -18
-13 -131 -29 -252 -17 -120 -39 -302 -51 -404 -11 -102 -25 -203 -31 -225 -22
-84 -28 -122 -29 -175 0 -30 -7 -91 -14 -135 -8 -44 -17 -120 -20 -170 -4 -49
-9 -109 -12 -131 l-5 -42 198 -6 c484 -16 944 -39 996 -49 22 -5 -10 713 -44
998 -6 50 -22 133 -36 185 -15 58 -23 109 -20 132 3 20 -1 54 -9 75 -14 40
-19 223 -6 223 33 0 435 33 501 41 46 5 101 19 122 29 21 11 96 41 166 66 172
62 220 85 339 154 55 33 105 60 111 60 6 0 24 15 41 34 16 19 38 37 49 40 19
6 185 173 250 252 38 46 164 262 205 352 46 101 87 233 99 317 6 43 18 89 27
103 15 22 17 57 16 246 0 210 -1 225 -27 306 -14 47 -42 143 -61 213 -60 217
-109 321 -219 471 -76 104 -325 352 -401 401 -32 20 -75 52 -95 70 -20 18 -49
39 -66 48 -16 8 -77 45 -135 82 -199 127 -639 330 -766 354 -25 5 -52 16 -62
24 -21 19 -130 49 -279 77 -253 47 -526 170 -629 283 -82 90 -99 134 -99 257
0 93 3 111 26 160 42 88 139 172 277 240 131 65 336 98 522 86 114 -8 327 -42
378 -61 83 -31 330 -143 374 -171 26 -16 86 -54 134 -84 48 -30 116 -83 151
-117 66 -66 84 -73 120 -48 57 40 219 337 273 501 18 54 43 120 56 146 25 49
77 224 87 293 8 52 -12 86 -84 142 -72 55 -229 153 -246 153 -7 0 -13 4 -13
10 0 16 -44 40 -138 75 -104 39 -400 186 -490 244 -34 23 -69 41 -77 41 -8 0
-75 16 -149 35 -149 38 -217 68 -276 122 -40 35 -40 36 -40 111 0 41 7 138 16
216 15 136 25 192 57 341 31 141 63 461 48 484 -6 10 -39 17 -98 22 -48 4
-103 12 -122 18 -19 6 -145 17 -280 26 -135 8 -307 20 -381 25 -159 12 -188
12 -217 0z"/>
<path d="M702 9740 c-12 -5 -24 -15 -27 -22 -32 -93 -52 -135 -70 -154 -33
-32 -154 -282 -161 -331 -5 -35 -3 -44 11 -50 10 -3 84 1 164 10 251 29 381
38 668 45 153 4 284 11 291 15 6 5 12 18 12 30 0 29 -120 143 -160 152 -16 4
-35 15 -40 26 -6 10 -18 19 -28 19 -9 0 -42 11 -72 24 -163 70 -304 136 -380
178 -76 41 -147 69 -175 67 -5 0 -20 -4 -33 -9z"/>
<path d="M8538 9005 c-64 -13 -163 -39 -220 -59 -57 -20 -171 -55 -254 -79
-82 -25 -194 -63 -248 -86 -53 -23 -118 -44 -144 -48 -126 -17 -179 -81 -103
-126 81 -47 286 -70 964 -108 201 -11 220 -11 235 5 15 15 17 45 17 255 0 187
-3 241 -14 254 -19 23 -89 21 -233 -8z"/>
<path d="M8405 7149 c-22 -4 -149 -20 -281 -34 -133 -14 -260 -32 -283 -40
-24 -8 -77 -19 -119 -24 -86 -11 -102 -23 -102 -82 0 -41 13 -49 82 -49 21 0
59 -8 85 -19 26 -10 145 -46 264 -80 118 -33 244 -71 280 -85 96 -36 541 -127
555 -114 6 6 22 174 30 315 10 176 0 192 -131 213 -71 12 -323 11 -380 -1z"/>
<path d="M760 6843 c-554 -59 -713 -82 -740 -108 -12 -13 -15 -45 -14 -193 2
-248 30 -377 88 -403 33 -15 50 -5 252 151 88 68 188 142 224 165 36 23 151
98 257 168 106 69 226 142 268 163 41 20 75 40 75 44 0 4 -10 10 -22 14 -24 6
-327 6 -388 -1z"/>
<path d="M7667 5123 c-12 -11 -8 -53 8 -83 8 -16 44 -51 78 -77 35 -27 94 -74
133 -106 38 -32 98 -79 134 -106 73 -53 292 -285 394 -415 69 -89 112 -126
143 -126 26 1 164 190 220 303 15 28 36 60 48 69 15 12 21 25 18 41 -3 14 2
29 11 36 27 22 18 49 -26 82 -69 50 -270 142 -453 209 -93 33 -209 77 -256 95
-63 26 -128 41 -252 60 -181 27 -190 28 -200 18z"/>
<path d="M996 3890 c-26 -5 -78 -26 -115 -47 -36 -21 -86 -47 -111 -58 -25
-11 -208 -102 -407 -203 -275 -139 -363 -188 -363 -201 0 -34 49 -214 65 -237
9 -15 13 -34 9 -49 -4 -18 -2 -27 11 -31 9 -4 26 -27 36 -52 41 -95 115 -161
161 -143 55 21 242 210 278 281 12 23 46 68 76 101 30 32 54 64 54 70 0 6 55
68 123 137 67 70 141 149 162 177 22 27 67 80 100 116 68 74 93 115 79 129
-14 14 -103 20 -158 10z"/>
<path d="M6497 2513 c-12 -11 -8 -67 9 -124 25 -83 88 -201 184 -344 137 -204
156 -236 281 -476 183 -352 186 -355 234 -309 12 12 36 29 53 38 38 21 106
101 133 155 12 23 53 86 91 140 41 58 66 102 62 110 -28 48 -169 198 -288 305
-250 226 -383 331 -481 378 -33 16 -98 50 -145 76 -93 50 -123 62 -133 51z"/>
<path d="M1904 2315 c-4 -8 -15 -15 -25 -15 -12 0 -24 -12 -32 -32 -8 -18 -36
-62 -63 -98 -27 -36 -99 -130 -160 -210 -60 -80 -143 -185 -183 -235 -41 -49
-81 -106 -89 -125 -8 -19 -34 -53 -58 -75 -40 -37 -234 -344 -234 -371 0 -21
36 -43 197 -122 175 -86 265 -112 316 -93 42 16 81 110 137 333 55 216 59 231
124 410 25 71 57 174 71 230 15 57 35 132 46 167 24 79 26 197 3 229 -17 25
-42 29 -50 7z"/>
<path d="M4166 921 c-13 -21 -56 -446 -82 -824 l-7 -98 44 7 c137 19 226 37
252 51 18 9 41 13 59 9 44 -9 78 29 78 87 0 78 -67 290 -142 447 -28 58 -58
129 -69 158 -19 55 -45 99 -87 145 -27 28 -37 33 -46 18z"/>
</g>
</svg>
