<?xml version="1.0" standalone="no"?>
<!DOCTYPE svg PUBLIC "-//W3C//DTD SVG 20010904//EN"
 "http://www.w3.org/TR/2001/REC-SVG-20010904/DTD/svg10.dtd">
<svg version="1.0" xmlns="http://www.w3.org/2000/svg"
 width="886.000000pt" height="1280.000000pt" viewBox="0 0 886.000000 1280.000000"
 preserveAspectRatio="xMidYMid meet">
<metadata>
Created by potrace 1.15, written by Peter Selinger 2001-2017
</metadata>
<g transform="translate(0.000000,1280.000000) scale(0.100000,-0.100000)"
fill="#2196f3" stroke="none">
<path d="M3785 12789 c-792 -52 -1412 -237 -1910 -569 -361 -242 -656 -569
-844 -940 -103 -202 -165 -378 -224 -635 -20 -89 -21 -114 -24 -1557 l-4
-1468 -107 0 c-60 0 -135 -7 -172 -16 -217 -51 -399 -220 -472 -439 l-23 -70
0 -3285 c0 -3185 1 -3287 19 -3340 73 -215 231 -373 446 -446 53 -18 169 -19
3960 -19 3791 0 3907 1 3960 19 215 73 373 231 446 446 18 53 19 155 19 3340
l0 3285 -23 70 c-73 219 -255 388 -472 439 -42 10 -115 16 -208 16 l-142 0 0
1658 c1 1820 5 1706 -59 1894 -123 365 -419 712 -827 970 -529 335 -1264 545
-2179 623 -381 32 -879 43 -1160 24z m2915 -905 c0 -2 -9 0 -20 6 -11 6 -20
13 -20 16 0 2 9 0 20 -6 11 -6 20 -13 20 -16z m130 -70 c0 -2 -9 0 -20 6 -11
6 -20 13 -20 16 0 2 9 0 20 -6 11 -6 20 -13 20 -16z m50 -30 c0 -2 -9 0 -20 6
-11 6 -20 13 -20 16 0 2 9 0 20 -6 11 -6 20 -13 20 -16z m297 -221 c179 -158
327 -385 382 -583 21 -74 21 -87 21 -1712 l0 -1638 -527 2 -528 3 523 2 522 3
0 1627 c0 1791 4 1667 -61 1827 -66 162 -215 361 -366 488 -116 98 -149 129
-88 82 28 -21 82 -66 122 -101z m-2393 -492 c146 -26 210 -42 323 -82 372
-132 621 -376 738 -723 46 -139 45 -116 45 -1417 l0 -1229 -1495 0 -1495 0 0
1219 c0 1327 -2 1284 57 1459 146 438 515 708 1073 787 159 22 595 14 754 -14z
m-859 -3891 c-220 -3 -378 -6 -351 -8 l48 -2 -38 -47 c-21 -27 -41 -50 -44
-53 -3 -3 -25 -30 -50 -60 -25 -30 -47 -57 -50 -60 -3 -3 -21 -25 -40 -50 -19
-25 -41 -52 -50 -60 -9 -8 -31 -35 -50 -60 -19 -25 -41 -52 -50 -60 -9 -8 -31
-35 -50 -60 -19 -25 -43 -53 -54 -62 -14 -13 -15 -18 -5 -18 117 -2 425 -13
428 -16 2 -2 -527 -4 -1177 -4 l-1182 0 0 -220 0 -220 743 0 c671 -1 975 -5
986 -16 2 -2 -43 -4 -101 -4 l-106 0 -26 -34 c-14 -19 -31 -40 -38 -48 -7 -7
-33 -38 -58 -68 -25 -30 -47 -57 -50 -60 -3 -3 -25 -30 -50 -60 -81 -99 -80
-99 -140 -103 -30 -2 89 -5 265 -8 203 -2 2 -6 -550 -9 l-870 -5 -3 -222 -2
-223 707 -2 c501 -2 620 -4 406 -8 l-301 -5 -20 -25 c-11 -14 -30 -36 -42 -50
-12 -14 -34 -41 -49 -60 -14 -19 -33 -42 -41 -50 -9 -8 -31 -35 -50 -60 -19
-25 -50 -60 -67 -79 -18 -20 -33 -39 -33 -43 0 -4 -37 -9 -82 -10 -46 -2 171
-5 482 -8 l565 -5 -737 -3 -738 -2 0 -225 0 -225 403 -2 402 -3 -405 -5 c-223
-3 -383 -7 -356 -10 44 -4 48 -7 35 -20 -8 -8 -34 -40 -59 -70 -25 -30 -47
-57 -50 -60 -3 -3 -25 -30 -50 -60 -25 -30 -47 -57 -50 -60 -3 -3 -25 -30 -50
-60 -25 -30 -47 -57 -50 -60 -3 -3 -25 -30 -50 -60 -25 -30 -47 -57 -50 -60
-3 -3 -25 -30 -50 -60 -25 -30 -47 -57 -50 -60 -3 -3 -25 -30 -50 -60 -25 -30
-47 -57 -50 -60 -3 -3 -25 -30 -50 -60 -25 -30 -47 -57 -50 -60 -3 -3 -25 -30
-50 -60 -87 -106 -80 -106 -82 -4 -2 49 -5 -224 -8 -606 -3 -382 -6 402 -8
1743 -2 2026 0 2443 11 2470 20 46 64 95 106 117 35 19 80 19 1906 17 1029 -1
1690 -4 1470 -7z m-938 -1076 c-3 -3 -12 -4 -19 -1 -8 3 -5 6 6 6 11 1 17 -2
13 -5z m16 -391 c-7 -2 -21 -2 -30 0 -10 3 -4 5 12 5 17 0 24 -2 18 -5z m-956
-1319 c-3 -3 -12 -4 -19 -1 -8 3 -5 6 6 6 11 1 17 -2 13 -5z m-840 -736 c-1
-62 -3 -12 -3 112 0 124 2 174 3 113 2 -62 2 -164 0 -225z"/>
<path d="M3488 7173 c6 -2 18 -2 25 0 6 3 1 5 -13 5 -14 0 -19 -2 -12 -5z"/>
<path d="M1518 4863 c6 -2 18 -2 25 0 6 3 1 5 -13 5 -14 0 -19 -2 -12 -5z"/>
<path d="M442 3565 c0 -16 2 -22 5 -12 2 9 2 23 0 30 -3 6 -5 -1 -5 -18z"/>
</g>
</svg>
